<svg xmlns="http://www.w3.org/2000/svg" version="1.1" xmlns:xlink="http://www.w3.org/1999/xlink" width="200" height="200"><svg xmlns="http://www.w3.org/2000/svg" version="1.1" xmlns:xlink="http://www.w3.org/1999/xlink" viewBox="0 0 200 200"><rect width="200" height="200" fill="url('#gradient')"></rect><defs><linearGradient id="SvgjsLinearGradient1001" gradientTransform="rotate(144 0.5 0.5)"><stop offset="0%" stop-color="#937451"></stop><stop offset="100%" stop-color="#342837"></stop></linearGradient></defs><g><g fill="#937451" transform="matrix(3.634978354978355,0,0,3.634978354978355,16.361336912061233,125.64543590454828)" stroke="#c8b379" stroke-width="0.75"><path d="M9.08-7.79L3.74-5.95L9.08-4.15L9.08-1.15L0.45-4.67L0.45-7.27L9.08-10.78L9.08-7.79ZM20.18 0L19.35-2.66L14.65-2.66L13.83 0L10.17 0L15.38-14.22L18.60-14.22L23.86 0L20.18 0ZM16.99-10.23L15.47-5.30L18.53-5.30L16.99-10.23ZM26.78-3.19L26.78-3.19Q27.56-3.19 28.08-2.73Q28.59-2.27 28.59-1.54Q28.59-0.82 28.08-0.36Q27.56 0.11 26.78 0.11L26.78 0.11Q25.99 0.11 25.47-0.36Q24.96-0.83 24.96-1.54Q24.96-2.26 25.47-2.72Q25.99-3.19 26.78-3.19ZM34.59-14.22L34.59 0L31.17 0L31.17-14.22L34.59-14.22ZM36.98-4.13L42.29-5.98L36.98-7.78L36.98-10.77L45.57-7.26L45.57-4.66L36.98-1.14L36.98-4.13Z"></path></g></g></svg><style>@media (prefers-color-scheme: light) { :root { filter: none; } }
@media (prefers-color-scheme: dark) { :root { filter: none; } }
</style></svg>